# Blender 4.1.1
# www.blender.org
mtllib evilPrymid.mtl
o Cube
v -1.572837 -1.000000 0.000000
v 0.000000 1.000000 0.000000
v 1.000000 -1.000000 1.000000
v 1.000000 -1.000000 -1.000000
vn -0.3484 0.2740 -0.8964
vn 0.8944 0.4472 -0.0000
vn -0.3484 0.2740 0.8964
vn -0.0000 -1.0000 -0.0000
vt 0.375000 0.250000
vt 0.625000 0.500000
vt 0.375000 0.500000
vt 0.625000 0.750000
vt 0.375000 0.750000
vt 0.625000 1.000000
vt 0.375000 1.000000
vt 0.125000 0.500000
s 0
f 1/1/1 2/2/1 4/3/1
f 4/3/2 2/4/2 3/5/2
f 3/5/3 2/6/3 1/7/3
f 1/8/4 4/3/4 3/5/4
